<svg viewBox="0 0 360 128" xmlns="http://www.w3.org/2000/svg" role="img" aria-label="Illustrative mockup of the AeroMind 3D drone training simulator"><rect x="60" y="14" width="240" height="100" rx="10" fill="#0E131C" stroke="#2A3A52"/><rect x="70" y="22" width="44" height="12" rx="6" fill="#16202E" stroke="#2A3A52"/><rect x="76" y="26" width="20" height="4" rx="2" fill="#36E0C8"/><rect x="120" y="22" width="44" height="12" rx="6" fill="#16202E" stroke="#2A3A52"/><rect x="126" y="26" width="26" height="4" rx="2" fill="#3FA9FF"/><rect x="170" y="22" width="44" height="12" rx="6" fill="#16202E" stroke="#2A3A52"/><rect x="176" y="26" width="16" height="4" rx="2" fill="#FFB547"/><ellipse cx="180" cy="98" rx="58" ry="7" fill="#16202E"/><ellipse cx="180" cy="98" rx="34" ry="4.5" fill="none" stroke="#3FA9FF" stroke-width="1.4" opacity=".8"/><rect x="168" y="64" width="24" height="9" rx="3" fill="#1C2533" stroke="#3FA9FF" stroke-width="1.2"/><line x1="168" y1="66" x2="150" y2="58" stroke="#36E0C8" stroke-width="2"/><line x1="192" y1="66" x2="210" y2="58" stroke="#36E0C8" stroke-width="2"/><ellipse cx="148" cy="57" rx="11" ry="2.6" fill="#36E0C8" opacity=".55"/><ellipse cx="212" cy="57" rx="11" ry="2.6" fill="#36E0C8" opacity=".55"/><circle cx="180" cy="70" r="2" fill="#FF5566"/><path d="M180 80 v10" stroke="#36E0C8" stroke-width="1.6" stroke-dasharray="3 3"/><rect x="252" y="40" width="40" height="56" rx="6" fill="#16202E" stroke="#2A3A52"/><rect x="258" y="47" width="28" height="4" rx="2" fill="#3FA9FF"/><rect x="258" y="56" width="22" height="3.6" rx="1.8" fill="#5B6B82"/><rect x="258" y="64" width="26" height="3.6" rx="1.8" fill="#5B6B82"/><rect x="258" y="74" width="12" height="12" rx="3" fill="none" stroke="#54E08A" stroke-width="1.4"/><path d="M261 80 l2.4 2.6 4.8-5.6" stroke="#54E08A" stroke-width="1.6" fill="none"/></svg>